<?xml version="1.0" encoding="utf-8"?>
<!-- Generator: Adobe Illustrator 19.1.0, SVG Export Plug-In . SVG Version: 6.00 Build 0)  -->
<svg version="1.1" id="Layer_1" xmlns="http://www.w3.org/2000/svg" xmlns:xlink="http://www.w3.org/1999/xlink" x="0px" y="0px"
	 viewBox="0 0 500 250" style="enable-background:new 0 0 500 250;" xml:space="preserve">
<style type="text/css">
	.st0{fill:#0056A8;}
	.st1{fill:none;}
</style>
<g>
	<path class="st0" d="M491.4,65l-53-53.7C431.9,5,423.8,0,414.9,0h-41.7h-34h-12.9h-28.8h-14.6h-32.5h-25.9h-17.7h-40.4h-17.7h-58
		c-9,0-17.7,4.2-24.2,10.4L11.7,63.1C5.2,69.6,0,78.5,0,87.7v74.6c0,9.2,5,17.7,11.5,24.2l54.2,53.3c6.5,6.2,15.8,10.4,24.8,10.4h58
		h17.5h40.4h17.5h25.9h32.1h14.8h28.8h12.9h34h3.8H414c9,0,17.7-3.3,24.2-9.6l52.5-52.5c6.5-6.5,9.2-15,9.2-24.2V89.3
		C500.5,80,498,71.2,491.4,65z"/>
	<line class="st1" x1="344.2" y1="249.9" x2="344.2" y2="249.9"/>
</g>
<text x="250" y="90" font-size="50px" font-family="Arial" text-anchor="middle" fill="#fff">Get 30-Day Trial</text>
<text x="250" y="160" font-size="50px" font-family="Arial" text-anchor="middle" fill="#fff">of ProfitChemix!</text>
</svg>
